HIERARCHY
ROOT Hips
{
	OFFSET	0.000000	0.000000	0.000000
	CHANNELS 6 Xposition Yposition Zposition Zrotation Xrotation Yrotation
	JOINT LeftUpLeg
	{
		OFFSET	12.830505	-7.049846	-1.643436
		CHANNELS 3 Zrotation Xrotation Yrotation
		JOINT LeftLeg
		{
			OFFSET	0.620834	-39.957502	-1.919341
			CHANNELS 3 Zrotation Xrotation Yrotation
			JOINT LeftFoot
			{
				OFFSET	-0.413890	-44.704761	-3.870325
				CHANNELS 3 Zrotation Xrotation Yrotation
				JOINT LeftFootHeel
				{
					OFFSET	0.164738	-8.918194	-6.555130
					CHANNELS 3 Zrotation Xrotation Yrotation
					End Site
					{
						OFFSET	-0.604053	0.000000	21.044330
					}
				}
			}
		}
	}
	JOINT RightUpLeg
	{
		OFFSET	-12.830505	-7.049846	-1.643436
		CHANNELS 3 Zrotation Xrotation Yrotation
		JOINT RightLeg
		{
			OFFSET	-0.620834	-39.957502	-1.919341
			CHANNELS 3 Zrotation Xrotation Yrotation
			JOINT RightFoot
			{
				OFFSET	0.413890	-44.704761	-3.870325
				CHANNELS 3 Zrotation Xrotation Yrotation
				JOINT RightFootHeel
				{
					OFFSET	-0.164738	-8.918194	-6.555130
					CHANNELS 3 Zrotation Xrotation Yrotation
					End Site
					{
						OFFSET	0.604053	0.000000	21.044330
					}
				}
			}
		}
	}
	JOINT Spine
	{
		OFFSET	0.000000	12.498171	1.820647
		CHANNELS 3 Zrotation Xrotation Yrotation
		JOINT Spine1
		{
			OFFSET	0.000000	7.620000	0.000000
			CHANNELS 3 Zrotation Xrotation Yrotation
			JOINT LeftShoulder
			{
				OFFSET	9.167800	29.136339	-5.551221
				CHANNELS 3 Zrotation Xrotation Yrotation
				JOINT LeftArm
				{
					OFFSET	12.133453	-3.880866	1.461963
					CHANNELS 3 Zrotation Xrotation Yrotation
					JOINT LeftForeArm
					{
						OFFSET	2.507115	-31.664910	-1.069404
						CHANNELS 3 Zrotation Xrotation Yrotation
						JOINT LeftHand
						{
							OFFSET	4.116172	-24.512624	5.009439
							CHANNELS 3 Zrotation Xrotation Yrotation
							End Site
							{
								OFFSET	-0.213136	-10.931856	2.182134
							}
						}
					}
				}
			}
			JOINT RightShoulder
			{
				OFFSET	-9.167800	29.136339	-5.551221
				CHANNELS 3 Zrotation Xrotation Yrotation
				JOINT RightArm
				{
					OFFSET	-12.133453	-3.880866	1.461963
					CHANNELS 3 Zrotation Xrotation Yrotation
					JOINT RightForeArm
					{
						OFFSET	-2.507115	-31.664910	-1.069404
						CHANNELS 3 Zrotation Xrotation Yrotation
						JOINT RightHand
						{
							OFFSET	-4.116172	-24.512624	5.009439
							CHANNELS 3 Zrotation Xrotation Yrotation
							End Site
							{
								OFFSET	0.213136	-10.931856	2.182134
							}
						}
					}
				}
			}
			JOINT Neck
			{
				OFFSET	0.000000	32.926275	-3.635654
				CHANNELS 3 Zrotation Xrotation Yrotation
				JOINT Head
				{
					OFFSET	0.000000	12.481178	4.646143
					CHANNELS 3 Zrotation Xrotation Yrotation
					End Site
					{
						OFFSET	0.000000	17.715205	-2.222063
					}
				}
			}
		}
	}
}
MOTION
Frames:     8
Frame Time: 0.016667
-3.863662	99.073593	2.419050	1.215012	0.466317	-5.381393	4.988789	-14.508213	15.456727	2.475252	32.064468	-6.974171	-3.021362	-17.470100	-4.270927	0.	0.	0.	-0.608635	-18.271868	-0.670870	0.658246	35.314926	5.837120	-2.169971	-16.469110	-0.113495	0.	0.	0.	0.000000	0.000000	-0.000003	-1.315431	-2.410239	10.465050	3.005717	5.766934	3.440949	57.427864	11.245203	50.266491	-3.899333	-74.265068	2.414541	20.037941	8.495572	-14.914951	-1.176938	4.895967	1.405892	-6.102441	8.653760	-6.652746	15.899897	-21.489943	14.100617	-7.093081	5.688102	5.251703	-11.051332	0.466251	-3.414027	14.395961	-5.038778	-5.518560	
-3.820846	99.144460	2.488384	1.405937	0.586968	-6.305353	4.895653	-14.385449	15.585715	2.211696	31.980555	-6.144851	-3.117104	-17.585546	-4.217978	0.	0.	0.	-0.702587	-18.517483	-0.254640	0.532544	35.268707	6.133748	-2.039414	-16.285784	0.224865	0.	0.	0.	0.000000	0.000000	0.000001	-1.036815	-2.802702	10.617619	2.777190	5.527501	3.280082	56.492928	10.298555	52.519218	3.634448	-74.293396	9.281184	24.376345	5.444551	-13.724635	-1.120384	4.983502	1.387999	-6.255931	8.468493	-6.358412	15.572864	-21.565149	13.780288	-7.419704	6.080101	5.560975	-11.099221	0.357526	-3.417380	14.479976	-5.025511	-4.694316	
-3.761924	99.428900	2.733551	2.058759	1.020175	-9.490939	4.534582	-13.985258	16.073694	1.601779	31.417562	-3.669461	-3.561339	-17.787466	-3.831403	0.	0.	0.	-0.989458	-19.266708	1.072363	0.195803	34.820515	7.193460	-1.714848	-15.544346	1.372193	0.	0.	0.	0.000000	0.000000	-0.000001	0.189277	-4.207652	11.334421	2.231180	4.593115	2.731535	53.789059	5.507174	60.934978	18.985176	-73.619614	23.203627	38.263268	-4.839117	-6.500995	-1.028071	5.273936	1.177025	-7.078664	7.817969	-5.572881	14.710904	-21.752066	13.395795	-8.599629	7.552391	6.968200	-11.508633	0.208062	-3.216700	14.894413	-5.021864	-2.136731	
-3.734009	99.666463	2.935077	2.597844	1.366859	-11.856773	4.142411	-13.675869	16.707033	1.287264	30.682463	-2.159663	-3.797195	-17.717640	-3.526697	0.	0.	0.	-1.266113	-19.817871	1.848096	-0.070470	34.338932	8.150296	-1.496060	-14.928219	2.245272	0.	0.	0.	0.000000	0.000000	-0.000000	1.255640	-5.430751	11.761379	1.881132	3.710779	2.762568	52.095844	1.575621	67.365334	23.823984	-74.479385	28.290897	48.393467	-10.403639	0.409139	-1.101584	5.564203	1.216344	-7.751584	7.301969	-5.491449	14.324218	-21.698105	13.872397	-9.520248	8.514428	8.211983	-11.917315	0.463882	-2.404428	15.278111	-5.347311	-0.426350	
-3.734009	99.666463	2.935077	2.597844	1.366859	-11.856773	4.142411	-13.675869	16.707033	1.287264	30.682463	-2.159663	-3.797195	-17.717640	-3.526697	0.	0.	0.	-1.266113	-19.817871	1.848096	-0.070470	34.338932	8.150296	-1.496060	-14.928219	2.245272	0.	0.	0.	0.000000	0.000000	-0.000000	1.255640	-5.430751	11.761379	1.881132	3.710779	2.762568	52.095844	1.575621	67.365334	23.823984	-74.479385	28.290897	48.393467	-10.403639	0.409139	-1.101584	5.564203	1.216344	-7.751584	7.301969	-5.491449	14.324218	-21.698105	13.872397	-9.520248	8.514428	8.211983	-11.917315	0.463882	-2.404428	15.278111	-5.347311	-0.426350	
-3.663066	100.127821	3.320257	3.584135	1.834280	-15.448512	3.188354	-13.118346	17.426861	0.874308	29.075785	0.102729	-4.113748	-17.266325	-2.811852	0.	0.	0.	-1.929925	-20.456186	2.683089	-0.543189	33.176006	9.675109	-1.040948	-13.843277	3.837541	0.	0.	0.	-0.000000	-0.000000	-0.000001	2.995601	-7.564808	11.924710	1.593807	2.402529	4.296506	48.577202	-6.190328	73.582642	38.174286	-78.628334	45.358624	62.360317	-14.682523	10.569411	-1.273702	5.848775	1.681609	-8.701509	6.822383	-5.613536	13.937527	-21.767788	14.851587	-10.918298	9.782291	10.469102	-8.927196	2.502565	-1.330503	11.323716	-6.847572	4.587275	
-3.542917	100.717543	3.843633	4.534207	2.136627	-18.772326	2.349988	-12.664745	18.617844	0.605481	27.529562	1.867947	-4.338746	-16.602045	-2.372408	0.	0.	0.	-2.639031	-20.443869	3.402620	-1.011518	31.164282	10.909544	-0.416195	-12.561265	5.500696	0.	0.	0.	0.000001	0.000000	-0.000001	5.017386	-9.533073	11.206679	1.410775	1.242542	6.052668	46.236221	-9.949360	73.865692	52.953773	-81.303040	69.774376	69.143394	-12.524074	17.379360	-1.394791	5.625741	2.492458	-9.737319	6.420835	-5.462120	13.689760	-21.705870	15.348776	-11.993385	10.594381	12.607808	-8.677845	4.401969	-0.367375	8.041822	-7.569343	10.116695	
-3.449508	101.150404	4.188869	5.112618	2.151467	-20.728657	0.993868	-11.120801	17.423861	0.120893	24.832039	4.848195	-4.582274	-15.642665	-2.168044	0.	0.	0.	-3.123767	-20.036045	4.150475	-1.118507	29.473486	11.320565	-0.002681	-11.652627	6.376080	0.	0.	0.	0.000001	-0.000001	-0.000003	6.263803	-10.528396	10.109786	1.660502	0.124469	6.946888	45.470917	-13.119954	73.167648	39.449326	-83.222168	60.660522	68.931847	-8.998479	17.544569	-1.301944	4.977350	3.072016	-10.444511	5.946280	-4.889626	13.340812	-20.958776	15.144441	-12.332496	10.592734	13.237206	-9.951141	5.431243	1.059476	6.780100	-8.093706	13.452400	
